<svg xmlns="http://www.w3.org/2000/svg" viewBox="0 0 24 24" width="100%" height="100%">
  <defs>
    <!-- Brand Gradient -->
    <linearGradient id="bgGrad" x1="0%" y1="0%" x2="100%" y2="100%">
      <stop offset="0%" stop-color="#10b981" />
      <stop offset="100%" stop-color="#0d9488" />
    </linearGradient>
  </defs>

  <!-- Rounded Brand App Icon Background -->
  <rect width="24" height="24" rx="5.5" fill="url(#bgGrad)" />

  <!-- Outer Orbit Rings (matching the UI's spinning futuristic orbit) -->
  <circle cx="12" cy="12" r="10.5" fill="none" stroke="white" stroke-width="0.6" stroke-dasharray="2 1.5" stroke-opacity="0.35" />
  <circle cx="12" cy="12" r="9.2" fill="none" stroke="white" stroke-width="0.3" stroke-opacity="0.2" />

  <!-- The Exact Brand Book Heart Icon Core -->
  <g transform="translate(4, 4) scale(0.6666)">
    <path d="M6.012 18H21V4c0-1.103-.897-2-2-2H6c-1.206 0-3 .799-3 3v14c0 2.201 1.794 3 3 3h15v-2H6.012C5.55 19.988 5 19.806 5 19c0-.101.009-.191.024-.273.112-.576.584-.717.988-.727zM8.648 7.642a2.224 2.224 0 0 1 3.125 0l.224.219.223-.219a2.225 2.225 0 0 1 3.126 0 2.129 2.129 0 0 1 0 3.069L11.998 14l-3.349-3.289a2.128 2.128 0 0 1-.001-3.069z" 
          fill="white" />
  </g>
  
  <!-- Twinkling Sparkle in top right (Brand sparkle) -->
  <path d="M19,4.5 C19,5 19.5,5 20,5 C19.5,5 19.5,5.5 19.5,6 C19.5,5.5 19,5.5 19,5 C18.5,5 19,5 19,4.5 Z" 
        fill="#ffebd5" />
</svg>
